<?xml version="1.0" encoding="UTF-8"?>
<svg width="553px" height="192px" viewBox="0 0 553 192" version="1.1" xmlns="http://www.w3.org/2000/svg" xmlns:xlink="http://www.w3.org/1999/xlink">
    <!-- Generator: Sketch 52.5 (67469) - http://www.bohemiancoding.com/sketch -->
    <title>Group 15</title>
    <desc>Created with Sketch.</desc>
    <g id="Web-app" stroke="none" stroke-width="1" fill="none" fill-rule="evenodd">
        <g id="Group-13" fill="#FFFFFF" fill-rule="nonzero">
            <g id="Group-14">
                <g id="Group-15">
                    <path d="M276.653428,191.05057 C375.788541,191.05057 456.153428,110.685682 456.153428,11.5505697 C456.153428,1.69186683 456.599198,0.078183465 455.350186,0.0505697088 C454.101174,0.0229559526 453.239794,0.078183465 452.153428,0.0505697088 C447.677083,-0.063212136 439.167844,0.0505697088 428.034689,0.0505697088 C395.265006,0.0505697088 337.567957,0.0505697088 273.217297,0.0505697088 C221.662486,0.0505697088 174.491334,0.0505697088 144.153428,0.0505697088 C127.107819,0.0505697088 116.711406,0.0505697088 105.132488,0.0505697088 C100.179367,0.0505697088 98.5064764,0.0505697088 97.9822818,0.0505697088 C97.4580873,0.0505697088 97.4512686,0.0505697088 97.1357829,0.0505697088 C96.8202972,0.0505697088 97.1534285,0.583212163 97.1534285,11.5505697 C97.1534285,110.685682 177.518316,191.05057 276.653428,191.05057 Z" id="Combined-Shape"></path>
                    <circle id="Oval" opacity="0.698428199" cx="477.5" cy="81.5" r="45.5"></circle>
                    <circle id="Oval" cx="543" cy="42" r="10"></circle>
                    <circle id="Oval" cx="20" cy="139" r="20"></circle>
                    <circle id="Oval" opacity="0.697288876" cx="57" cy="88" r="20"></circle>
                    <circle id="Oval" cx="127.5" cy="136.5" r="37.5"></circle>
                    <circle id="Oval" cx="54" cy="50" r="37"></circle>
                    <circle id="Oval" cx="502" cy="137" r="30"></circle>
                </g>
            </g>
        </g>
    </g>
</svg>